<?xml version="1.0" encoding="utf-8"?>
<!-- Generator: Adobe Illustrator 16.0.0, SVG Export Plug-In . SVG Version: 6.00 Build 0)  -->
<!DOCTYPE svg PUBLIC "-//W3C//DTD SVG 1.1//EN" "http://www.w3.org/Graphics/SVG/1.1/DTD/svg11.dtd">
<svg version="1.1" id="Layer_1" xmlns="http://www.w3.org/2000/svg" xmlns:xlink="http://www.w3.org/1999/xlink" x="0px" y="0px"
	 width="1984.129px" height="316.099px" viewBox="0 0 1984.129 316.099" enable-background="new 0 0 1984.129 316.099"
	 xml:space="preserve">
<g>
	<g>
		<path fill="#888888" d="M1889.884,79.245c-32.625,0-64.42,12.191-83.49,20.718c-18.465-13.518-40.167-20.718-62.553-20.718
			c-35.801,0-63.52,14.684-81.327,23.09c-0.402,0.222-11.302,6.034-11.302,21.002c0,0.43-0.032,172.947-0.032,172.947
			s0,11.527,12.284,11.527c0,0,30.839,0.012,30.911,0c12.291,0,12.291-11.527,12.291-11.527V139.865
			c0,0,13.168-11.367,37.175-11.367c27.93,0,45.256,15.836,46.075,51.736c-0.01,50.404-0.023,116.05-0.023,116.05
			s0,11.527,12.287,11.527c0,0,0.032,0,0.06,0c0,0,0.021,0,0.028,0c1.17,0.003,13.686,0.006,22.403,0.008c0.414,0,0.821,0,1.217,0
			c4.182-0.002,7.239-0.002,7.263-0.008c12.284,0,12.284-11.527,12.284-11.527V159.042c0-14.49,1.04-19.974,13.524-24.691
			c12.268-5.764,29.583-10.018,50.236-3.215c20.578,6.777,19.454,35.398,19.454,51.599v113.55c0,0,0,11.527,12.282,11.527
			c0,0,30.839,0.012,30.913,0c12.284,0,12.284-11.527,12.284-11.527V177.772C1984.129,115.367,1940.039,79.245,1889.884,79.245z"/>
	</g>
	<path fill="#888888" d="M351.315,75.027c-73.17,0-112.276,54.676-112.276,122.806c0,60.143,39.105,114.41,107.224,114.41
		c73.176,0,112.287-54.268,112.287-122.403C458.55,129.703,419.439,75.027,351.315,75.027z M351.315,261.753
		c-37.427,0-53.84-26.92-53.84-71.913c0-37.428,16.413-64.335,48.788-64.335c37.012,0,53.839,26.907,53.839,72.328
		C400.103,234.833,384.117,261.753,351.315,261.753z"/>
	<path fill="#888888" d="M1182.386,296.62c0,0,0-163.981,0-164.796c0-13.134-9.806-19.083-9.806-19.083l0.073-0.022
		c-14.589-11.519-46.694-31.658-84.436-34.734c-9.188-0.746-17.035-0.678-17.631-0.638
		c-65.991,2.676-107.566,54.406-107.566,120.801c0,66.877,44.151,114.005,101.764,114.005c0,0,40.912,0,61.405-23.098v7.729
		c0,6.365,2.845,10.412,10.614,10.412c0.269,0,36.254,0,36.388,0C1183.268,307.196,1182.386,298.528,1182.386,296.62z
		 M1116.917,238.937c-6.174,9.963-15.828,16.856-27.604,20.089c-8.734,2.503-15.407,1.993-15.407,1.993
		c-30.429,0-54.975-19.443-54.975-66.896c0-36.59,22.728-64.172,50.905-64.172c0.92,0,3.367,0,3.704,0
		c21.874,0.011,39.796,10.749,48.035,15.93c3.464,2.188,4.283,6.556,4.283,6.556
		C1131.841,187.489,1127.653,221.575,1116.917,238.937z"/>
	<path fill="#888888" d="M588.76,75.056c-36.361,0-73.142,14.912-91.228,23.449c-0.409,0.227-11.478,6.13-11.478,21.331
		c0,0.437-0.034,175.651-0.034,175.651s0,11.709,12.478,11.709c0,0,31.32,0.011,31.393,0c12.483,0,12.483-11.709,12.483-11.709
		V136.624c0,0,22.003-11.547,46.385-11.547c29.019,0,48.019,16.822,48.019,55.086v115.324c0,0,0,11.709,12.478,11.709
		c0,0,31.32,0.011,31.393,0c12.478,0,12.478-11.709,12.478-11.709V175.124C693.127,111.741,639.697,75.056,588.76,75.056z"/>
	<path fill="#888888" d="M1519.388,80.472c-71.963,0-110.422,53.771-110.422,120.773c0,59.146,38.459,112.518,105.453,112.518
		c71.965,0,110.43-53.371,110.43-120.378C1624.849,134.242,1586.384,80.472,1519.388,80.472z M1519.388,264.108
		c-36.811,0-52.952-26.477-52.952-70.724c0-36.808,16.142-63.271,47.983-63.271c36.399,0,52.949,26.463,52.949,71.131
		C1567.368,237.632,1551.645,264.108,1519.388,264.108z"/>
	<path fill="#888888" d="M925.015,1.519l-35.451,19.612c-5.192,3.183-6.5,7.55-6.781,10.075c0,16.807,0.006,38.584,0.023,57.051
		l-0.034,0.027c-33.234-15.238-61.395-13.257-61.395-13.257c-57.611,0-101.763,47.11-101.763,113.971
		c0,66.407,41.57,120.466,107.572,123.126c0.583,0.045,8.425,0.119,17.619-0.641c37.741-3.076,69.853-23.236,84.441-34.743
		l-0.073-0.028c0,0,9.918-5.939,9.918-19.09c0-0.449,0-237.922,0-248.688C939.093,0.106,930.162-1.774,925.015,1.519z
		 M885.618,205.657c-0.146,10.121-0.938,20.678-3.059,28.555c-0.511,2.62-1.689,5.438-4.396,7.077
		c-8.172,5.253-26.162,15.918-48.03,15.918c-0.342,0-0.657-0.011-0.971-0.034c-0.91,0.023-1.819,0.034-2.739,0.034
		c-28.172,0-50.899-27.587-50.899-64.167c0-47.458,24.546-66.896,54.979-66.896C830.504,126.145,891.006,120.239,885.618,205.657z"
		/>
	<path fill="#888888" d="M117.715,75.027c0,0-28.166-1.981-61.383,13.257c0,0,0-68.584,0-79.35c0-8.828-8.947-10.709-14.088-7.416
		L7.409,20.8c-6,3.385-7.202,8.29-7.409,10.794c0.028,40.544,0,225.603,0,226.028c0,13.15,9.929,19.09,9.929,19.09l-0.073,0.028
		c14.582,11.507,46.688,31.667,84.435,34.743c9.184,0.76,17.03,0.686,17.625,0.641c65.991-2.66,107.572-56.719,107.572-123.126
		C219.489,122.138,175.332,75.027,117.715,75.027z M112.674,257.207c-0.92,0-1.841-0.011-2.745-0.034
		c-0.314,0.023-0.634,0.034-0.965,0.034c-21.879,0-39.864-10.665-48.042-15.918c-2.694-1.64-3.878-4.457-4.384-7.077
		c-2.127-7.877-2.918-18.434-3.07-28.555c-5.389-85.418,55.125-79.513,55.125-79.513c30.434,0,54.974,19.438,54.974,66.896
		C163.567,229.62,140.84,257.207,112.674,257.207z"/>
	<g>
		<path fill="#888888" d="M1398.797,285.062c2.311-2.518,5.697-7.46,0.615-12.876l-0.724-0.725
			c-0.308-0.287-0.556-0.539-0.773-0.773l-23.668-23.668c-0.003-0.002-0.005-0.004-0.007-0.006
			c-7.805-7.639-13.413,0.729-13.413,0.729l-0.032-0.096c-8.12,10.803-20.226,16.621-36.444,16.621
			c-37.544,0-55.121-23.209-55.121-68.344c0-31.268,10.164-63.602,50.055-63.602c16.764,0,29.386,4.764,38.204,14.692l0.035-0.104
			c0,0,5.305,9.061,15.544-1.18c0.001,0,0.002-0.001,0.002-0.001l22.743-22.743c0.002-0.002,0.003-0.005,0.006-0.007
			c7.85-7.85,1.202-14.592,1.194-14.6c-17.958-17.158-42.465-27.876-72.662-27.876c-87.963,0-112.631,53.661-112.631,122.007
			c0,64.338,39.229,113.586,107.564,113.586c33.215,0,59.429-11.148,78.183-29.688c0.049-0.047,0.102-0.1,0.158-0.155
			C1398.021,285.862,1398.407,285.46,1398.797,285.062z"/>
	</g>
</g>
</svg>
